<?xml version="1.0" encoding="UTF-8"?>
<!DOCTYPE svg PUBLIC "-//W3C//DTD SVG 1.1//EN" "http://www.w3.org/Graphics/SVG/1.1/DTD/svg11.dtd">
<!-- Creator: CorelDRAW -->
<svg xmlns="http://www.w3.org/2000/svg" xml:space="preserve" width="2048px" height="2048px" style="shape-rendering:geometricPrecision; text-rendering:geometricPrecision; image-rendering:optimizeQuality; fill-rule:evenodd; clip-rule:evenodd"
viewBox="0 0 2048 2048"
 xmlns:xlink="http://www.w3.org/1999/xlink">
 <defs>
  <style type="text/css">
   <![CDATA[
    .fil1 {fill:none}
    .fil0 {fill:#424242;fill-rule:nonzero}
   ]]>
  </style>
 </defs>
 <g id="Layer_x0020_1">
  <metadata id="CorelCorpID_0Corel-Layer"/>
  <path class="fil0" d="M1539.7 1056.96c-81.4194,243.572 -189.006,351.218 -287.121,379.281 -102.429,29.2949 -193.456,-25.011 -239.647,-105.015l27.6248 -16.0004 -27.7134 16.0004c-0.555119,-0.962599 -1.05591,-1.94173 -1.5,-2.93386 -44.602,-79.6347 -45.1772,-184.009 30.5516,-257.237 73.6477,-71.217 221.511,-110.604 474.954,-58.3843l-6.3756 31.2496 6.45827 -31.3418c17.3091,3.56575 28.4492,20.491 24.8835,37.8 -0.475985,2.31142 -1.19291,4.51063 -2.11417,6.58229z"/>
  <path class="fil0" d="M1526.47 1071.55c15.2563,-8.83583 20.4603,-28.3689 11.6244,-43.6252 -8.83583,-15.2563 -28.3689,-20.4603 -43.6252,-11.6244l-619.549 357.697c-15.2563,8.83583 -20.4603,28.3689 -11.6244,43.6252 8.83583,15.2563 28.3689,20.4603 43.6252,11.6244l619.549 -357.697z"/>
  <path class="fil0" d="M304.405 1209.06c192.608,36.6402 285.455,107.873 317.215,180.301 33.8091,77.0989 1.0937,154.022 -56.4768,198.542 -57.5741,44.5252 -140.262,56.8406 -206.385,4.72087 -62.3634,-49.154 -108.072,-157.604 -94.5379,-354.782l31.8756 2.1248 -31.9252 -2.19095c1.20945,-17.6315 16.4847,-30.9437 34.1162,-29.7343 2.10709,0.144095 4.15276,0.49252 6.11811,1.01811z"/>
  <path class="fil0" d="M321.345 1220.47c-10.7693,-13.9441 -30.8055,-16.5189 -44.7496,-5.74961 -13.9441,10.7693 -16.5189,30.8055 -5.74961,44.7496l329.009 425.439c10.7693,13.9441 30.8055,16.5189 44.7496,5.74961 13.9441,-10.7693 16.5189,-30.8055 5.74961,-44.7496l-329.009 -425.439z"/>
  <path class="fil0" d="M1276.68 1605.43c96.6296,-144.37 187.365,-195.422 258.024,-196.243 75.9591,-0.881103 128.296,53.38 144.95,116.843 16.6358,63.3981 -2.35394,136.322 -69.0095,172.878 -62.1615,34.0925 -166.853,34.0028 -323.045,-45.3709l14.3752 -28.5 -14.4969 28.5284c-15.7547,-8.00552 -22.037,-27.2705 -14.0315,-43.0252 0.93189,-1.83543 2.01851,-3.53977 3.23386,-5.11063z"/>
  <path class="fil0" d="M1293.97 1594.16c-17.0516,4.41733 -27.2929,21.8232 -22.8756,38.8748 4.41733,17.0516 21.8232,27.2929 38.8748,22.8756l457.236 -119.987c17.0516,-4.41733 27.2929,-21.8232 22.8756,-38.8748 -4.41733,-17.0516 -21.8232,-27.2929 -38.8748,-22.8756l-457.236 119.987z"/>
  <path class="fil0" d="M1760 840.175c17.6043,0 31.8756,-14.2713 31.8756,-31.8756 0,-17.6043 -14.2713,-31.8756 -31.8756,-31.8756 -23.465,0 -40.8307,-6.52796 -55.5815,-16.8295 -16.5201,-11.5382 -31.8083,-29.0634 -48.2079,-47.8689 -20.3433,-23.3268 -42.0496,-48.2115 -71.8642,-68.4875 -31.1646,-21.1961 -69.1182,-35.9032 -119.114,-35.9032 -49.9914,0 -87.9414,14.7083 -119.102,35.9044 -29.8122,20.276 -51.5162,45.1595 -71.863,68.4863 -16.4008,18.8067 -31.6878,36.3343 -48.202,47.8701 -14.6398,10.226 -31.976,16.7032 -55.5733,16.7032l0 0.125197c-47.1615,-0.0011811 -73.2875,-29.7461 -103.417,-64.2851l0.0283465 -0.0236221 -0.0129921 -0.0153543 0.0531496 -0.0448819 -0.302362 -0.348425 0.0011811 -0.0011811 -0.068504 -0.0767717 -0.416929 -0.466536 -0.112205 -0.122835 -0.500788 -0.530315 -0.0259843 -0.0271654c-0.236221,-0.244488 -0.475985,-0.486615 -0.718111,-0.722835 -19.8508,-22.7528 -41.1674,-46.813 -70.141,-66.5209 -31.1622,-21.1949 -69.1111,-35.9032 -119.101,-35.9032 -49.9914,0 -87.9402,14.7083 -119.102,35.9044 -29.811,20.276 -51.5185,45.1595 -71.863,68.4863l24 21 -3.49725 -3.04961 -20.5075 -17.9445 -0.0295276 0.0330709 -0.0826772 -0.0720473c-0.301181,0.344882 -0.591733,0.69567 -0.874016,1.05l-0.0011811 -0.0011811 -0.0401575 0.0507874 -0.442914 0.569292 -0.0354331 0.046063 -0.263386 0.351969c-29.4744,33.7772 -55.4658,62.5394 -101.988,62.5394l0 0.125197c-23.465,0 -40.8284,-6.52796 -55.5792,-16.8295 -16.5177,-11.537 -31.8083,-29.0634 -48.2115,-47.8689 -20.2878,-23.2606 -41.9386,-48.0532 -71.2134,-68.0871 -30.7051,-21.013 -68.204,-35.7201 -117.776,-36.1181 -17.6043,-0.138189 -31.9878,14.0209 -32.126,31.6252 -0.138189,17.6043 14.0209,31.9878 31.6252,32.126 34.7587,0.27874 60.926,10.5059 82.2768,25.1173 22.7823,15.5906 41.5866,37.1268 59.2134,57.3367 18.9662,21.7441 36.6461,42.0083 59.7107,58.1185 24.8327,17.3433 53.6823,28.3299 92.08,28.3311l0 0.125197c75.1867,0 110.251,-38.9906 150.045,-84.6048l0.119291 -0.11811 0.0732284 -0.0720473 0.478347 -0.483071 0.161811 -0.168898 0.383859 -0.407481 0.173622 -0.191339 0.381496 -0.425197 0.0625985 -0.0708662 -0.0011811 -0.0011811c0.294095,-0.337796 0.584646,-0.682678 0.86693,-1.03583l-0.0625985 -0.0496063c17.5713,-20.1425 36.3343,-41.4768 58.6926,-56.6823 21.3969,-14.5536 47.8418,-24.6532 83.3528,-24.6532 35.5099,0 61.956,10.0996 83.3516,24.652 21.9969,14.9622 40.5166,35.8595 57.8422,55.7162l0.0425197 0.0578741 0.113386 0.151181 0.364961 0.477166 0.16063 0.204331 0.32126 0.398032 0.206693 0.250394 0.125197 0.152362 0.00236221 -0.00236221 0.324803 0.382677 0.0826772 -0.0720473 0.0188977 0.0212599 14.0705 -12.3118 9.94253 -8.67284 -24 21c40.4575,46.3807 75.3934,86.432 151.765,86.4343l0 0.125197c38.2618,0 67.1339,-11.035 92.0741,-28.4551 23.0646,-16.1126 40.7398,-36.3768 59.7012,-58.1197 17.837,-20.4496 36.8658,-42.2646 59.6126,-57.7359 21.3969,-14.5536 47.8406,-24.6532 83.3528,-24.6532 35.5181,0 61.9678,10.0996 83.3646,24.652 22.7504,15.4725 41.7792,37.2874 59.6138,57.7371 18.9626,21.7441 36.6402,42.0083 59.7071,58.1185 24.8327,17.3433 53.687,28.3299 92.0824,28.3311z"/>
  <path class="fil0" d="M1760 543.098c17.6043,0 31.8756,-14.2713 31.8756,-31.8756 0,-17.6043 -14.2713,-31.8756 -31.8756,-31.8756 -23.465,0 -40.8307,-6.52796 -55.5815,-16.8295 -16.5201,-11.5382 -31.8083,-29.0634 -48.2079,-47.8689 -20.3433,-23.3268 -42.0496,-48.2115 -71.8642,-68.4875 -31.1646,-21.1961 -69.1182,-35.9032 -119.114,-35.9032 -49.9914,0 -87.9414,14.7083 -119.102,35.9044 -29.8122,20.276 -51.5162,45.1595 -71.863,68.4863 -16.4008,18.8067 -31.6878,36.3343 -48.202,47.8701 -14.6398,10.226 -31.976,16.7032 -55.5733,16.7032l0 0.125197c-47.1615,-0.0011811 -73.2875,-29.7461 -103.417,-64.2851l0.0283465 -0.0236221 -0.0129921 -0.0153543 0.0531496 -0.0448819 -0.302362 -0.348425 0.0011811 -0.0011811 -0.068504 -0.0767717 -0.416929 -0.466536 -0.112205 -0.122835 -0.500788 -0.530315 -0.0259843 -0.0271654c-0.236221,-0.244488 -0.475985,-0.486615 -0.718111,-0.722835 -19.8508,-22.7528 -41.1674,-46.813 -70.141,-66.5209 -31.1622,-21.1949 -69.1111,-35.9032 -119.101,-35.9032 -49.9914,0 -87.9402,14.7083 -119.102,35.9044 -29.811,20.276 -51.5185,45.1595 -71.863,68.4863l20.5028 17.9504 -20.5075 -17.9445 -0.0295276 0.0330709 -0.0826772 -0.0720473c-0.301181,0.344882 -0.591733,0.69567 -0.874016,1.05l-0.0011811 -0.0011811 -0.0401575 0.0507874 -0.442914 0.569292 -0.0354331 0.046063 -0.263386 0.351969c-29.4744,33.7772 -55.4658,62.5394 -101.988,62.5394l0 0.125197c-23.465,0 -40.8284,-6.52796 -55.5792,-16.8295 -16.5177,-11.537 -31.8083,-29.0634 -48.2115,-47.8689 -20.2878,-23.2606 -41.9386,-48.0532 -71.2134,-68.0871 -30.7051,-21.013 -68.204,-35.7201 -117.776,-36.1181 -17.6043,-0.138189 -31.9878,14.0209 -32.126,31.6252 -0.138189,17.6043 14.0209,31.9878 31.6252,32.126 34.7587,0.27874 60.926,10.5059 82.2768,25.1173 22.7823,15.5906 41.5866,37.1268 59.2134,57.3367 18.9662,21.7441 36.6461,42.0083 59.7107,58.1185 24.8327,17.3433 53.6823,28.3299 92.08,28.3311l0 0.125197c75.1867,0 110.251,-38.9906 150.045,-84.6048l0.119291 -0.11811 0.0732284 -0.0720473 0.478347 -0.483071 0.161811 -0.168898 0.383859 -0.407481 0.173622 -0.191339 0.381496 -0.425197 0.0625985 -0.0708662 -0.0011811 -0.0011811c0.294095,-0.337796 0.584646,-0.682678 0.86693,-1.03583l-0.0625985 -0.0496063c17.5713,-20.1425 36.3343,-41.4768 58.6926,-56.6823 21.3969,-14.5536 47.8418,-24.6532 83.3528,-24.6532 35.5099,0 61.956,10.0996 83.3516,24.652 21.9969,14.9622 40.5166,35.8595 57.8422,55.7162l0.0425197 0.0578741 0.113386 0.151181 0.364961 0.477166 0.16063 0.204331 0.32126 0.398032 0.206693 0.250394 0.125197 0.152362 0.00236221 -0.00236221 0.324803 0.382677 0.0826772 -0.0720473 0.0188977 0.0212599c24.6567,-21.5752 33.8445,-29.5878 0.0129921,0.0153543 40.4575,46.3807 75.3934,86.432 151.765,86.4343l0 0.125197c38.2618,0 67.1339,-11.035 92.0741,-28.4551 23.0646,-16.1126 40.7398,-36.3768 59.7012,-58.1197 17.837,-20.4496 36.8658,-42.2646 59.6126,-57.7359 21.3969,-14.5536 47.8406,-24.6532 83.3528,-24.6532 35.5181,0 61.9678,10.0996 83.3646,24.652 22.7504,15.4725 41.7792,37.2874 59.6138,57.7371 18.9626,21.7441 36.6402,42.0083 59.7071,58.1185 24.8327,17.3433 53.687,28.3299 92.0824,28.3311z"/>
 </g>
 <rect class="fil1" width="2048" height="2048"/>
</svg>
